# Wreck-It.Ralph.2012.1080p.BluRay.REMUX.AVC.DTS-HD.MA.7.1-FGT

```text
General
Unique ID                                : 194380102143098751023948710293847102938 (0x925FE707BC928FA8F3E901928301ACD2)
Complete name                            : Wreck-It.Ralph.2012.1080p.BluRay.REMUX.AVC.DTS-HD.MA.7.1-FGT.mkv
Format                                   : Matroska
Format version                           : Version 4 / Version 2
File size                                : 28.4 GiB
Duration                                 : 1 h 41 min
Overall bit rate mode                    : Variable
Overall bit rate                         : 40.1 Mb/s
Movie name                               : Wreck-It Ralph (2012) - Blu-ray Remux
Encoded date                             : UTC 2013-03-05 08:14:22
Writing application                      : mkvmerge v6.0.0 ('gandalf') built on Jan 20 2013 22:31:10
Writing library                          : libebml v1.3.0 + libmatroska v1.4.0

Video
ID                                       : 1
Format                                   : AVC
Format/Info                              : Advanced Video Codec
Format profile                           : High@L4.1
Format settings                          : CABAC / 4 Ref Frames
Format settings, CABAC                   : Yes
Format settings, Reference frames        : 4 frames
Codec ID                                 : V_MPEG4/ISO/AVC
Duration                                 : 1 h 41 min
Bit rate mode                            : Variable
Maximum bit rate                         : 40.0 Mb/s
Width                                    : 1 920 pixels
Height                                   : 1 080 pixels
Display aspect ratio                     : 16:9
Frame rate mode                          : Constant
Frame rate                               : 23.976 (24000/1001) fps
Color space                              : YUV
Chroma subsampling                       : 4:2:0
Bit depth                                : 8 bits
Scan type                                : Progressive
Bits/(Pixel*Frame)                       : 0.650
Stream size                              : 23.5 GiB (83%)
Language                                 : English
Default                                  : Yes
Forced                                   : No
Color range                              : Limited
Color primaries                          : BT.709
Transfer characteristics                 : BT.709
Matrix coefficients                      : BT.709

Audio #1
ID                                       : 2
Format                                   : DTS LBR
Format/Info                              : Digital Theater Systems Low Bit Rate
Commercial name                          : DTS-HD Master Audio
Codec ID                                 : A_DTS
Duration                                 : 1 h 41 min
Bit rate mode                            : Variable
Bit rate                                 : 5 011 kbps
Channel(s)                               : 8 channels
Channel layout                           : C L R Ls Rs Lb Rb LFE
Sampling rate                            : 48.0 kHz
Frame rate                               : 93.750 fps (512 SPF)
Bit depth                                : 24 bits
Compression mode                         : Lossless
Stream size                              : 3.55 GiB (13%)
Title                                    : DTS-HD MA 7.1
Language                                 : English
Default                                  : Yes
Forced                                   : No

Audio #2
ID                                       : 3
Format                                   : AC-3
Format/Info                              : Audio Coding 3
Commercial name                          : Dolby Digital
Codec ID                                 : A_AC3
Duration                                 : 1 h 41 min
Bit rate mode                            : Constant
Bit rate                                 : 640 kbps
Channel(s)                               : 6 channels
Channel layout                           : L C R Ls Rs LFE
Sampling rate                            : 48.0 kHz
Frame rate                               : 31.250 fps (1536 SPF)
Bit depth                                : 16 bits
Compression mode                         : Lossy
Stream size                              : 464 MiB (2%)
Title                                    : DD 5.1
Language                                 : French
Default                                  : No
Forced                                   : No

Audio #3
ID                                       : 4
Format                                   : AC-3
Format/Info                              : Audio Coding 3
Commercial name                          : Dolby Digital
Codec ID                                 : A_AC3
Duration                                 : 1 h 41 min
Bit rate mode                            : Constant
Bit rate                                 : 640 kbps
Channel(s)                               : 6 channels
Channel layout                           : L C R Ls Rs LFE
Sampling rate                            : 48.0 kHz
Frame rate                               : 31.250 fps (1536 SPF)
Bit depth                                : 16 bits
Compression mode                         : Lossy
Stream size                              : 464 MiB (2%)
Title                                    : DD 5.1
Language                                 : Spanish
Default                                  : No
Forced                                   : No

Subtitle #1
ID                                       : 5
Format                                   : PGS
Muxing mode                              : zlib
Codec ID                                 : S_HDMV/PGS
Codec ID/Info                            : Picture based subtitle format used on BDs/HD-DVDs
Duration                                 : 1 h 36 min
Bit rate                                 : 46.2 kb/s
Frame rate                               : 0.448 fps
Count of elements                        : 2598
Stream size                              : 31.9 MiB (0%)
Title                                    : English SDH
Language                                 : English
Default                                  : No
Forced                                   : No

Subtitle #2
ID                                       : 6
Format                                   : PGS
Muxing mode                              : zlib
Codec ID                                 : S_HDMV/PGS
Codec ID/Info                            : Picture based subtitle format used on BDs/HD-DVDs
Duration                                 : 1 h 34 min
Bit rate                                 : 28.4 kb/s
Frame rate                               : 0.320 fps
Count of elements                        : 1812
Stream size                              : 19.1 MiB (0%)
Title                                    : French
Language                                 : French
Default                                  : No
Forced                                   : No

Subtitle #3
ID                                       : 7
Format                                   : PGS
Muxing mode                              : zlib
Codec ID                                 : S_HDMV/PGS
Codec ID/Info                            : Picture based subtitle format used on BDs/HD-DVDs
Duration                                 : 1 h 35 min
Bit rate                                 : 29.8 kb/s
Frame rate                               : 0.334 fps
Count of elements                        : 1914
Stream size                              : 20.3 MiB (0%)
Title                                    : Spanish
Language                                 : Spanish
Default                                  : No
Forced                                   : No
```
